<?xml version="1.0" encoding="UTF-8" standalone="no"?>
<svg version="1.1" viewBox="0.00 0.00 329.00 311.00" id="svg174" sodipodi:docname="logo.svg" inkscape:version="1.4.2 (f4327f4, 2025-05-13)" xmlns:inkscape="http://www.inkscape.org/namespaces/inkscape" xmlns:sodipodi="http://sodipodi.sourceforge.net/DTD/sodipodi-0.dtd" xmlns="http://www.w3.org/2000/svg" xmlns:svg="http://www.w3.org/2000/svg">
   <defs id="defs174" />
   <sodipodi:namedview id="namedview174" pagecolor="#ffffff" bordercolor="#666666" borderopacity="1.0" inkscape:showpageshadow="2" inkscape:pageopacity="0.0" inkscape:pagecheckerboard="0" inkscape:deskcolor="#d1d1d1" inkscape:zoom="1.4142" inkscape:cx="239.71" inkscape:cy="119.15" inkscape:window-width="2560" inkscape:window-height="1369" inkscape:window-x="2552" inkscape:window-y="-8" inkscape:window-maximized="1" inkscape:current-layer="svg174" />
   <path fill="#324544" d="   M 178.20 5.20   A 0.91 0.90 -66.0 0 1 178.79 6.75   L 172.31 13.23   A 4.56 4.55 23.3 0 1 168.95 14.56   Q 153.83 14.13 139.26 16.51   Q 111.48 21.05 87.72 35.96   Q 42.69 64.20 27.33 116.65   A 4.12 4.12 0.0 0 1 24.78 119.36   L 17.75 121.88   A 1.13 1.13 0.0 0 1 16.27 120.56   Q 18.25 112.17 18.78 110.52   Q 27.12 84.41 42.26 64.56   Q 73.05 24.19 122.38 10.01   C 127.95 8.40 132.44 7.84 137.95 6.69   Q 140.87 6.08 144.24 5.78   Q 160.50 4.29 178.20 5.20   Z" id="path110" style="fill:#000000;fill-opacity:1" />
   <path fill="#324544" d="m 264.98,216.97 -8.02,7.57 c 0,0.1 -0.11,0.1 -0.17,0.13 l -6.72,4.16 -11.94,5.26 c -1.48,0.44 -4.64,1.58 -6.46,2.1 -2.26,0.64 -4.09,1.05 -5.48,1.22 -5.32,0.66 -10.64,0.82 -15.97,0.47 l -8.69,-1.07 c -1.23,-0.88 -2.32,-1.13 -3.28,-0.76 -0.85,0.33 -1.25,1.35 -0.91,2.3 0.41,1.11 0.83,2.18 1.27,3.21 0.11,0.24 0.21,0.38 0.26,0.61 1.24,5.23 -0.23,-1.25 0.96,4.33 l 4.29,16.73 c 0.19,0.71 -0.17,1.45 -0.84,1.76 l -4.44,2.02 h -0.15 c -1.55,0.16 -3.09,0.66 -4.62,1.49 -9.88,3.67 -19.84,7.25 -29.89,10.72 -0.55,0.19 -0.89,0.64 -1.02,1.33 -0.61,-0.35 -1.05,-0.48 -1.31,-0.39 -25.69,9.11 -39.54,13.79 -53.56,19.94 -5.29,2.32 -13.6,-0.28 -19.18,-2.8 -2.273,-1.03 -4.943,-3.04 -8.01,-6.05 -24.793,-24.34 -38.08,-37.44 -39.86,-39.3 -2.407,-2.52 -3.68,-3.84 -3.82,-3.97 -1.699,-1.52 -2.936,-3.48 -3.57,-5.67 l -3.04,-10.49 c -0.104,-0.35 -0.397,-0.61 -0.76,-0.68 -5.547,-1 -10.057,-3.61 -13.53,-7.82 -1.873,-2.27 -3.487,-5.91 -4.84,-10.9 -1.84,-6.76 -2.84,-10.65 -3,-11.66 -1.13,-7.28 1.95,-12.77 7.49,-17.17 0.311,-0.25 0.448,-0.66 0.35,-1.05 L 4.72,136.36 c -0.1519,-0.6 0.2097,-1.21 0.81,-1.37 l 5.48,-1.4 c 0.664,-0.17 1.373,0 1.87,0.49 l 10.03,9.71 c 0.03,0.32 0.147,0.53 0.36,0.63 0.253,0.11 0.547,0 0.6,-0.31 0.147,-0.82 -0.03,-1.38 -0.53,-1.68 l 0.48,-2.34 c 0,0 0,-0.1 0.01,-0.1 l 0.43,-8.95 c 0.03,-0.72 0.402,-1.38 1,-1.78 1.513,-1.02 3.147,-1.52 4.9,-1.49 0.375,0 0.735,0.14 1.02,0.38 8.333,6.97 15.77,13.75 22.31,20.34 10.187,10.26 16.813,22.33 19.88,36.2 0.05,0.22 0.342,0.28 0.47,0.1 5.113,-7.49 10.84,-13.66 17.18,-18.52 3.28,-2.51 9.66,-7.15 15.32,-10.25 11.07,-6.07 22.44,-11.25 34.12,-15.56 1.19,-0.44 2.19,-1.36 2.98,-2.77 8.06,-14.22 13.65,-28.25 15.22,-44.45 0.78,-7.967 1.29,-15.71 1.54,-23.23 0.1,-2.207 0.7,-6.727 1.88,-13.56 3.35,-19.26 13.71,-36.44 28.64,-48.87 0.92,-0.7665 2.14,-1.0816 3.33,-0.86 l 112.43,21.64 c 0.31,0.05 0.43,0.441 0.2,0.67 l -11.82,11.82 c -0.31,0.318 -0.14,0.852 0.29,0.94 l 16.19,3.11 c 0.59,0.121 0.85,0.827 0.47,1.3 l -6.29,7.77 c -0.39,0.476 -0.19,1.193 0.39,1.4 3.35,1.193 6.25,2.27 8.71,3.23 1.74,0.687 2.84,1.427 3.29,2.22 0.66,1.16 0.51,2.627 -0.38,3.67 -9.26,10.893 -17,22.323 -23.22,34.29 -2.13,4.09 -4.94,10.43 -8.44,19.02 -5.53,13.57 -9.48,27.39 -11.84,41.48 -0.47,2.82 -0.6,4.07 0.31,6.84 6.12,18.61 2.09,35.7 -9.36,50.83 z M 151.49,150.89 c -0.5,1.14 0.49,2.2 1.69,2 3.13,-0.53 6.16,-1.45 9.11,-2.77 0.81,-0.37 1.46,-0.36 1.93,0 0.45,0.38 0.75,1 0.89,1.86 l 0.42,0.96 c -0.25,0.75 -0.1,1.6 0.58,2.55 -0.11,1.42 0.1,2.41 0.63,3.82 0.41,1.09 0.61,1.65 1.51,1.82 0.28,0 0.71,-0.11 1.29,-0.48 1.03,-0.1 2,-0.39 2.93,-0.96 l 1.29,0.1 c 1.15,-0.1 2.16,0.1 3.03,0.36 0.3,0.1 0.53,0.34 0.62,0.64 l 0.87,2.9 c 1.81,8.81 4.2,17.85 7.15,27.12 0.2,0.62 0.73,1.09 1.37,1.21 3.77,0.73 8.13,1.24 11.47,3.51 l 5.37,3.95 c 0.21,0.16 0.4,0.35 0.55,0.56 1.08,1.51 2.23,2.86 3.72,4.01 l 1.11,1.21 c 0.9,0.99 2.14,1.44 3.49,1.59 3.58,0.4 11.49,1.18 14.92,-1.13 0.35,-0.24 0.61,-0.6 0.71,-1.02 1.16,-4.75 3.32,-11.25 6.48,-19.51 1.71,-4.47 4.75,-10.59 9.1,-18.38 1.85,-3.31 4.91,-9.45 9.17,-18.41 1.93,-4.05 3.18,-7.2 3.75,-9.46 2.68,-10.43 4.32,-19.53 4.96,-31.16 0.74,-13.29 1.66,-24.25 5.49,-36.53 2.17,-6.967 5.11,-13.413 8.8,-19.34 4.05,-6.48 8.62,-12.32 13.71,-17.52 0.2,-0.214 0.1,-0.559 -0.19,-0.61 l -10.66,-1.79 -6.33,-1.22 c -0.1,0 -0.13,-0.03 -0.19,-0.06 -0.75,-0.387 -1.55,-0.56 -2.41,-0.52 -1.15,-0.493 -2.4,-0.707 -3.76,-0.64 -1.85,-0.68 -3.4,-0.95 -4.65,-0.81 -11.42,-2.847 -22.62,-5.11 -33.61,-6.79 l -15.72,-3 c -4.15,-1.16 -8.25,-1.77 -12.29,-1.83 -2.47,-1.913 -4.93,-1.737 -7.4,0.53 -11.33,10.433 -18.54,23.527 -21.62,39.28 -0.83,4.247 -1.31,7.037 -1.45,8.37 -0.41,3.893 -0.65,6.713 -0.72,8.46 -0.37,9.187 -0.69,15.1 -0.95,17.74 -1.84,18.56 -7.59,35.74 -17.26,51.55 -0.22,0.38 -0.36,0.8 -0.39,1.23 -0.16,2.36 0.34,4.57 1.49,6.62 z m 104.93,34.14 c -2.77,12.09 -9.6,20.71 -20.51,25.86 -0.88,0.42 -1.62,0.71 -2.23,0.86 -1.96,0.5 -3.74,1.65 -5.58,2.17 -6.59,1.85 -13.2,1.87 -19.83,0.1 -4.42,-1.21 -5.48,-3.1 -8.17,-7.08 -0.29,-0.42 -0.62,-0.81 -1,-1.15 -2.89,-2.59 -6.28,-4.42 -10.19,-5.47 -0.33,-0.1 -0.66,0.18 -0.63,0.52 l 0.34,4.3 c 0,0.46 -0.34,0.85 -0.8,0.81 -5.86,-0.45 -13.94,-0.54 -14.94,6.82 -1.5,11.12 8.86,17.43 18.7,16.32 2.71,-0.31 5.65,-0.72 8.8,-1.23 0.1,0 0.1,-0.14 0,-0.17 -4.3,0.51 -1.66,-0.62 0.57,0.11 0.22,0.1 0.43,0.21 0.67,0.26 7.18,1.41 11.49,2.12 12.93,2.13 9.27,0.1 18.13,-1.88 26.57,-5.83 15.41,-7.22 26.96,-21.78 28,-39.02 0.38,-6.99 -0.85,-13.56 -3.68,-19.72 -0.87,-1.89 -1.11,-3.44 -0.7,-4.63 1.24,-3.63 2.2,-7.41 2.87,-11.35 1.93,-11.34 5.12,-21.96 9.43,-32.63 4.24,-10.49 5.7,-15.37 10.04,-22.79 4.9,-8.37 8.93,-16.41 13.77,-21.86 2.02,-2.273 3.74,-4.563 5.16,-6.87 0.44,-0.711 0.1,-1.642 -0.69,-1.91 l -4.63,-1.56 c -0.57,-0.195 -1.2,-0.03 -1.61,0.41 -3.64,3.94 -6.35,7.973 -8.12,12.1 -2.85,6.64 -10.03,1.52 -6.91,-2.83 2.25,-3.133 4.18,-6.19 5.81,-9.17 0.81,-1.467 1.88,-3.183 3.21,-5.15 2.31,-3.393 3.5,-5.133 3.58,-5.22 0.61,-0.619 0.32,-1.672 -0.52,-1.89 l -5.28,-1.38 c -1.28,-0.331 -2.63,0.1 -3.49,1.1 -7.43,8.67 -12.24,20.85 -15.01,31.94 -0.33,1.293 -0.57,2.857 -0.73,4.69 -1.11,12.6 -2.15,24.14 -3.12,34.63 -1.59,17.38 -8.71,33.57 -17.15,48.72 -5.79,10.38 -10,19.31 -13.24,29.13 -0.16,0.5 0.43,0.9 0.84,0.57 5.59,-4.75 8.32,-10.61 10.2,-17.69 0.1,-0.41 0.35,-0.76 0.69,-1.01 3.3,-2.39 6.98,0.13 6.55,4.05 z m -191.06,0.28 c -0.26,-2.09 -0.993,-4.74 -2.2,-7.93 -2.32,-6.12 -5.253,-11.36 -8.8,-15.72 -6.34,-7.79 -13.7,-15.26 -22.08,-22.41 -0.476,-0.42 -1.219,-0.1 -1.21,0.56 v 10.77 c 0,0.54 0.212,1.06 0.59,1.44 l 33.42,33.42 c 0.105,0.12 0.307,0 0.28,-0.13 z m 19.23,-1.63 c 0.56,-0.71 1.007,-1.18 1.34,-1.41 12.187,-8.59 25.27,-15.39 39.25,-20.38 9.79,-3.49 15.79,-5.56 18,-6.2 0.37,-0.11 0.59,-0.49 0.49,-0.86 l -1.48,-5.78 c -0.1,-0.4 -0.53,-0.63 -0.92,-0.49 -13.72,4.99 -26.2,11 -37.44,18.03 -7.527,4.7 -14.01,10.27 -19.45,16.72 -0.06,0.1 -0.06,0.19 0,0.26 0.1,0.12 0.17,0.16 0.21,0.11 z m -6.15,92.41 c -0.753,-3.8 -1.553,-7.29 -2.4,-10.46 C 64.787,223.38 58.907,200.86 58.4,198.05 57.48,192.93 55.61,187.88 52.08,184.42 40.853,173.37 29.543,162.18 18.15,150.86 c -0.05,-0.1 -0.153,-0.11 -0.3,-0.17 -0.1,-0.1 -0.19,-0.11 -0.27,-0.18 -0.195,-0.19 -0.52,0 -0.49,0.24 0.187,1.52 0.57,3.28 1.15,5.29 2.787,9.61 5.383,19.28 7.79,29.01 0.54,2.16 1.63,4.97 3.58,6.05 9.38,5.16 13.84,15.67 14.24,26.09 0.167,4.42 -1.22,8.07 -4.16,10.96 -0.461,0.46 -0.631,1.13 -0.44,1.75 1,3.2 1.72,9.36 4.5,12.51 5.56,6.32 13.75,13.22 19.54,19.15 5.767,5.91 10.67,10.84 14.71,14.77 0.183,0.19 0.5,0 0.44,-0.24 z M 88.651,190.1 c 0.352,0.34 -0.991,-0.1 -1.131,0.13 -0.127,0.23 -0.04,0.4 0.26,0.53 0.28,0.12 0.53,0.15 0.75,0.1 0.187,-0.1 0.287,-0.17 0.3,-0.35 0.01,-0.14 -0.03,-0.3 -0.13,-0.47 l 68.89,-24.8 c 1.32,-0.48 1.96,-1.99 1.38,-3.27 l -0.38,-0.84 c -0.42,-0.92 -1.45,-1.39 -2.42,-1.11 -11.43,3.32 -21.66,6.65 -30.69,9.99 -13.29,4.91 -25.633,11.41 -37.02,19.49 -0.07,0.1 -0.107,0.13 -0.1,0.21 0,0.16 0.05,0.17 0.1,0.21 z m 99.559,47.27 c -1.44,-0.62 -3.89,-0.25 -5.51,-0.79 -9.64,-3.23 -16.3,-8.54 -18.16,-18.83 -0.41,-2.23 -0.4,-4.22 0,-5.99 1.27,-5.41 3.46,-9.31 8.55,-11.91 1.58,-0.81 3.49,-1.01 4.88,-1.74 0.29,-0.15 0.44,-0.49 0.36,-0.81 l -6.98,-27.25 c -0.1,-0.39 -0.52,-0.61 -0.9,-0.47 l -76.8,27.58 c -0.46,0.17 -0.72,0.65 -0.6,1.12 l 22.69,88.54 c 0.13,0.48 0.64,0.76 1.1,0.59 l 76.74,-27.56 c 0.63,-0.23 0.99,-0.91 0.81,-1.56 l -5.51,-20.13 c -0.1,-0.35 -0.34,-0.64 -0.68,-0.79 z M 34.68,221.94 c 0.54,-0.97 0.84,-2.07 0.9,-3.29 0.34,-6.72 -2.17,-15.82 -8.32,-19.38 -4.027,-2.34 -6.817,-4.12 -8.37,-5.35 -0.595,-0.48 -1.485,-0.16 -1.65,0.58 -0.473,2.11 -0.44,4.43 0.1,6.96 1.04,4.91 2.3,9.28 3.78,13.11 2.173,5.66 6.28,8.37 12.32,8.13 0.521,0 0.993,-0.31 1.24,-0.76 z m 49.45,-21.4 c -4.95,1.63 -11.38,-0.31 -16.08,-2.52 -0.414,-0.2 -0.875,0.17 -0.76,0.62 L 89.9,286.9 c 0.134,0.5 0.466,0.93 0.92,1.18 4.733,2.56 9.6,3.89 14.59,3.98 1.52,0 2.66,-1.39 2.28,-2.87 L 85.11,201.08 c -0.111,-0.43 -0.559,-0.67 -0.98,-0.54 z" id="path111" sodipodi:nodetypes="cccccssccssssccscscsccsssssscsssssccccccssccccssssscssssssssccccccssssssssssccsssccccscccsscssccsccssssssssssscccsccccccsssssssccssssssssssssscscsssssssssssssssssssssssssscssccssscscccscsssccsssscssssssssssssssssccssssccsssssscssssssccccccscccssssssssssssccssscsssscs" style="fill:#000000;fill-opacity:1" />
   <path fill="#c15440" d="m 199.79,17.11 c 4.04,0.06 8.14,0.67 12.29,1.83 l -1.91,3.34 c -4.41,4.547 -8.22,9.456 -11.65,14.683 -2.67,4.06 -4.38,8.447 -6.24,12.847 -0.1,0.226 -0.16,0.469 -0.21,0.708 -0.42,2.127 -1,4.169 -1.81,6.082 -0.1,0.206 -0.17,0.391 -0.19,0.61 l -0.24,3.715 c 0.19,0.946 0.1,0.553 0,1.633 -0.15,0.964 -0.4,1.945 -0.51,3.048 -0.15,1.593 0.1,0.273 -0.34,2.152 -0.22,1.029 -0.28,2.008 -0.36,2.991 -0.11,1.43 -0.18,2.862 -0.26,4.409 -0.29,5.915 -0.1,13.051 -0.1,24.242 0,0.245 0.17,0.46 0.42,0.52 l 0.43,0.11 c -0.17,0.13 -0.33,0.21 -0.46,0.25 -7.91,0.38 -12.55,4.05 -14.52,11.1 -0.32,1.16 0.15,2.25 1.13,2.95 2.77,1.96 4.73,1.99 6.59,-0.28 0.11,-0.14 0.21,-0.29 0.3,-0.46 1.13,-2.27 1.3,-3.67 3.86,-4.4 l -0.97,2.05 -0.9,4.98 c -0.6,1.44 -1.16,2.9 -1.68,4.37 -1.7,4.79 -4.27,9.35 -6.64,13.86 L 165.11,152 c -0.14,-0.86 -0.44,-1.48 -0.89,-1.86 -0.47,-0.38 -1.12,-0.39 -1.93,0 -2.95,1.32 -5.98,2.24 -9.11,2.77 -1.2,0.2 -2.19,-0.86 -1.69,-2 5.25,-8.79 9.38,-16.88 12.37,-24.28 4.53,-11.19 7.28,-22.82 8.23,-34.89 0.37,-4.673 0.82,-11.83 1.34,-21.47 0.33,-6.293 1.55,-12.613 3.65,-18.96 0.22,-0.36 0.35,-0.777 0.38,-1.25 l 0.58,-2 c 0.34,-0.253 0.47,-0.62 0.39,-1.1 0.37,-0.513 0.61,-1.09 0.7,-1.73 0.16,-0.03 0.27,-0.193 0.32,-0.48 4.09,-9.86 10.59,-19.72 18.99,-26.48 0.24,0 0.43,-0.147 0.56,-0.46 0.1,-0.18 0.34,-0.407 0.79,-0.68 z" id="path112" sodipodi:nodetypes="cccsssscccssssssccsssscccsccssscssscccccccscc" />
   <path fill="#324544" d="   M 199.00 17.79   Q 198.80 18.26 198.44 18.25   Q 198.69 17.91 199.00 17.79   Z" id="path113" />
   <path fill="#f7b66a" fill-opacity="0.757" d="   M 227.80 21.94   Q 228.31 23.28 226.65 24.51   Q 222.62 21.70 217.29 21.75   A 0.12 0.12 0.0 0 1 217.26 21.51   L 218.70 21.16   A 0.01 0.01 0.0 0 0 218.69 21.14   C 215.99 21.70 213.22 20.85 210.17 22.28   L 212.08 18.94   L 227.80 21.94   Z" id="path114" />
   <path fill="#ffc06e" fill-opacity="0.875" d="m 226.65,24.51 -3.33,3.03 c -1.75,0.747 -2.92,1.963 -3.5,3.65 l -2.92,3.94 c -5.94,8.019 3.38,-3.77 -1.13,1.64 -0.77,0.927 -1.46,1.88 -2.1,2.9 -8.82,13.97 -12.26,30.62 -10.52,47.11 0.37,3.5 0.53,5.91 0.5,7.23 -0.1,2.14 0,4.617 0.24,7.43 v 0.31 l -1.1,10.41 c 0,0.1 0,0.17 -0.1,0.26 -0.52,1.54 -0.91,2.82 -0.81,4.28 0,0.63 0,1.09 -0.2,1.37 -0.31,0.5 -0.54,1.15 -0.68,1.94 -0.3,1.7 -0.42,3.8 -1.13,5.98 -1.74,5.33 -4.86,11.39 -7.1,15.02 -2.48,-0.51 -7.99,-6.09 -7.99,-6.09 -2.47,-1.47 -6.68,-4.6 -6.5,-5.02 0.38,-0.92 1.73,-3.65 2.13,-4.57 0.67,-1.55 1.93,-4.77 3.28,-8.22 0.62,-1.58 0.63,-3.3 0.99,-4.72 0.52,-2.02 1.29,-3.48 1.51,-3.32 0.33,0.24 2.24,0.73 2.47,1.07 l 1.18,1.12 1.02,2.17 c 0.14,0.3 -0.13,0.78 0.14,0.98 0.39,0.29 0.29,0.82 0.8,1.91 0.99,1.35 2.15,1.63 3.84,1.58 1.19,-0.56 0.76,0 1.91,-1.01 0.59,-0.51 1.33,-0.89 1.61,-1.85 0.7,-4.12 -0.44,-7.61 -3.42,-10.48 -1.1,-1.06 -3.01,-2.34 -5.73,-3.85 0.62,-0.63 0.35,-0.84 -0.82,-0.62 l -0.43,-0.11 c -0.25,-0.06 -0.42,-0.275 -0.42,-0.52 0,-16.13 -1.2,-23.881 0.63,-31.65 0.37,-1.55 0.42,-3.315 0.83,-5.2 V 61 l 0.24,-3.73 c 0,-0.219 0.1,-0.434 0.15,-0.64 0.81,-1.913 1.42,-3.933 1.84,-6.06 0,-0.239 0.12,-0.474 0.21,-0.7 1.86,-4.4 3.53,-8.81 6.2,-12.87 3.43,-5.227 7.19,-10.199 11.6,-14.746 3.05,-1.43 5.64,-0.712 8.35,-1.247 l 0.44,-0.09 -0.34,0.607 c -0.16,0.02 -1.03,0.239 -0.9,0.219 3.55,-0.03 6.56,0.865 9.25,2.738 z" id="path115" sodipodi:nodetypes="cccsscsssccssssscssssssscssccscsccsssccccscscsccccc" />
   <path fill="#c15440" d="m 261.41,28.73 c -1.42,2.56 -3.42,5.06 -6,7.5 l -6.75,8.56 c -5.55,7.48 -9.29,15.983 -11.22,25.51 l -0.28,2.01 c -1.07,4.527 -1.72,9.177 -1.96,13.95 -0.28,5.473 -0.38,11.02 -0.3,16.64 v 0.24 l -0.82,2.42 c -0.14,0.42 9.47,8.51 7.44,6.12 -4.66,-5.51 -10.36,-6.29 -17.1,-2.35 -1.99,1.16 -3.59,3.48 -4.8,6.97 -0.69,1.97 0.18,4.14 2.03,5.1 l 0.17,0.1 c 1.86,0.96 4.1,0.13 4.99,-1.76 1.16,-2.48 2.74,-4.02 4.7,-4.65 0.91,-0.29 1.67,0 2.22,0.81 -0.27,0 -0.5,0 -0.69,0.1 -0.22,0 -0.34,0.16 -0.37,0.31 0,0.15 0,0.31 0.15,0.5 -0.41,0.13 -0.64,0.46 -0.68,0.99 -0.24,2.87 -0.86,5.73 -1.85,8.58 l -2.63,7.05 -1.99,4.04 -1.18,0.14 c -0.28,0 -0.5,-0.14 -0.73,0 -3.89,2.69 -6.59,4.37 -8.1,5.04 -6.04,2.65 -12.07,2.8 -18.09,0.47 -1.35,-0.53 -3.05,-1.3 -5.08,-2.33 -0.13,-0.1 -0.26,-0.15 -0.37,-0.26 l -1.24,-0.14 c 0.87,0.43 0.49,-0.1 0.86,0.38 0.76,0.95 2.02,-0.88 2.19,-2.08 0.12,-0.87 0.4,-1.62 0.84,-2.23 3.15,-5.12 5.25,-10.61 6.29,-16.47 0.14,-0.79 0.37,-1.44 0.68,-1.94 0.17,-0.28 0.24,-0.74 0.2,-1.37 -0.1,-1.46 0.29,-2.74 0.81,-4.28 0,-0.1 0.1,-0.17 0.1,-0.26 l 1.1,-10.41 v -0.31 c -0.22,-2.813 -0.3,-5.29 -0.24,-7.43 0,-1.32 -0.13,-3.73 -0.5,-7.23 -1.74,-16.49 1.18,-33.816 10.54,-47.431 1.74,-2.531 2.18,-3.087 3.08,-4.24 l 3.05,-3.919 3.29,-3.693 3.35,-3.03 c 1.11,-0.82 1.68,-1.634 1.34,-2.527 10.99,1.68 22.19,3.943 33.61,6.79 z" id="path116" sodipodi:nodetypes="cccccssssssssssscsscscccscsssccsscssssccssssscccccc" />
   <path fill="#f7b66a" fill-opacity="0.757" d="   M 223.32 27.54   L 219.82 31.19   Q 220.69 28.66 223.32 27.54   Z" id="path117" />
   <path fill="#f7b66a" fill-opacity="0.757" d="   M 266.06 29.54   Q 267.71 30.32 269.82 30.18   Q 271.11 30.12 272.23 30.70   A 0.51 0.48 60.8 0 0 272.42 30.76   L 278.75 31.98   Q 279.40 32.13 279.68 32.42   Q 279.99 32.74 279.61 33.32   Q 279.02 34.20 278.07 34.86   Q 278.10 33.41 276.84 33.40   A 1.13 1.11 33.0 0 0 276.40 33.49   Q 275.77 33.78 275.44 33.71   C 267.88 32.02 261.75 29.84 255.41 36.23   Q 259.28 32.57 261.41 28.73   Q 263.28 28.52 266.06 29.54   Z" id="path118" />
   <path fill="#c15440" d="   M 269.82 30.18   Q 267.71 30.32 266.06 29.54   Q 268.10 29.44 269.82 30.18   Z" id="path119" />
   <path fill="#ffc06e" fill-opacity="0.875" d="m 278.07,34.86 -6.67,6.7 c -0.21,0.206 -0.38,0.434 -0.53,0.68 -2.1,3.45 -4.72,5.98 -6.67,9.32 -1.91,3.273 -2.95,5.12 -3.12,5.54 -0.75,1.847 -2.06,4.51 -3.93,7.99 -0.15,0.265 -0.24,0.552 -0.29,0.85 -0.31,1.793 -0.88,3.693 -1.69,5.7 -0.13,0.325 -0.23,0.668 -0.28,1.02 -0.27,1.827 -0.76,5.237 -1.46,10.23 -0.44,3.147 -0.62,6.57 -0.53,10.27 0.19,8.09 0,15.6 -0.58,22.53 -0.31,3.73 -0.88,7.21 -1.71,10.44 -1.52,5.89 -2.44,9.31 -2.77,10.24 -1.99,5.69 -4.7,11.81 -8.15,18.36 -2.07,3.93 -7.04,12.18 -14.91,24.74 -1.2,1.91 -2.19,3.72 -2.96,5.41 -1.09,2.36 -2,4.2 -2.74,5.53 -0.47,0.85 -1.24,2.78 -2.29,5.8 -0.69,1.96 -1.47,3.89 -2.36,5.79 -0.17,0.23 -0.31,0.5 -0.41,0.81 0,0.15 -0.24,0.16 -0.32,0 l -0.12,-0.22 c -0.13,-0.23 -0.45,-0.24 -0.6,0 -0.54,0.79 -0.95,1.16 -1.22,1.11 -2.58,-0.45 -4.19,-2.81 -6.12,-5.19 -0.36,-0.44 -0.8,-0.79 -1.29,-1.05 l -6.17,-3.23 c 0.87,-1.5 1.59,-3.07 2.17,-4.71 0.89,-2.54 1.49,-4.14 1.8,-4.8 1.41,-3.03 2.15,-4.58 2.2,-4.67 0.73,-1.33 1.92,-3.63 3.56,-6.88 1.25,-2.49 2.56,-4.73 3.92,-6.71 1.75,-2.55 3.24,-5.05 4.49,-7.48 0.21,-0.42 -0.1,-0.91 -0.56,-0.9 -1.77,0 -3.46,0.24 -5.09,0.66 -0.31,0.1 -0.62,0.12 -0.93,0.12 -6.02,0 -9.56,-0.1 -10.61,-0.29 -4.08,-0.91 -7.89,-2.4 -11.42,-4.47 -0.96,-0.56 -2.21,-0.34 -2.87,0.57 l -4.7,7.2 -1.97,2.01 c -0.33,-1.66 -0.52,-2.32 -0.66,-2.68 -0.12,-0.33 -0.1,-0.51 -0.38,-0.83 -0.11,-0.12 -0.28,-0.18 -0.6,-0.27 -0.51,-0.15 -1.44,-0.28 -3.48,-0.28 -0.83,-0.1 -1.67,0.73 -2.24,0.68 -1.96,-0.15 -2.71,1.99 -3.69,-0.21 l -0.45,-0.94 c -0.55,-1.39 -0.72,-2.49 -0.61,-3.91 -0.65,-1.01 -0.85,-1.55 -0.56,-2.57 l -0.45,-0.82 13.14,-22.02 6.8,5.08 c 0.3,0.22 -3.93,3.75 -3.96,4.13 -0.1,0.88 6.3,7.32 9.12,9.48 1.81,1.23 3.7,2.06 5.66,2.51 4.19,1.02 10.47,1.65 16.65,0.73 5.25,-0.78 9.19,-3.63 14.42,-6.94 2.81,-3.37 2.31,-5.8 -1.27,-7.47 l 2.02,-4.15 0.63,0.65 c 0.2,0.2 0.51,0.21 0.7,0 2.24,-2.63 2.63,-5.31 1.32,-7.8 0.99,-2.85 1.59,-5.6 1.83,-8.47 0,-0.53 0.3,-0.87 0.71,-1 0.73,2.03 2.02,3.82 3.73,5.33 0.7,1.18 2.27,2.09 2.94,1.26 9.97,-12.36 -4.83,-14.13 -5.35,-17.8 l 0.82,-2.42 v -0.24 c -0.1,-5.62 0,-11.167 0.3,-16.64 0.24,-4.773 0.89,-9.423 1.96,-13.95 0.47,-0.44 0.56,-1.11 0.28,-2.01 1.93,-9.527 5.67,-18.03 11.22,-25.51 3.23,-1.513 5.48,-4.367 6.75,-8.56 6.34,-6.39 12.47,-4.21 20.03,-2.52 0.22,0.05 0.54,-0.03 0.96,-0.22 0.14,-0.06 0.29,-0.09 0.44,-0.09 0.84,0 1.25,0.493 1.23,1.46 z m -111.8,121.2 v 0.13 c 0,0 0.1,0.1 0.1,0 v -0.12 c 0,-0.1 -0.13,-0.11 -0.13,0 z" id="path120" sodipodi:nodetypes="ssssssssssssssssssssssssssscsscsssssssssccssscsccccccssccscccsccsccssscsccccssscsssssss" />
   <path fill="#c15440" d="m 213.01,206.12 c 0.79,-1.14 1.26,-2.51 1.42,-4.12 0.89,-1.9 1.67,-3.83 2.36,-5.79 1.05,-3.02 1.82,-4.95 2.29,-5.8 0.74,-1.33 1.65,-3.17 2.74,-5.53 0.77,-1.69 1.76,-3.5 2.96,-5.41 7.87,-12.56 12.84,-20.81 14.91,-24.74 3.45,-6.55 6.16,-12.67 8.15,-18.36 0.33,-0.93 1.25,-4.35 2.77,-10.24 0.83,-3.23 1.4,-6.71 1.71,-10.44 0.57,-6.93 0.77,-14.44 0.58,-22.53 -0.1,-3.7 0.1,-7.123 0.53,-10.27 0.7,-4.993 1.19,-8.403 1.46,-10.23 0.1,-0.352 0.15,-0.695 0.28,-1.02 0.81,-2.007 1.38,-3.907 1.69,-5.7 0.1,-0.298 0.14,-0.585 0.29,-0.85 1.87,-3.48 3.18,-6.143 3.93,-7.99 0.17,-0.42 1.21,-2.267 3.12,-5.54 1.95,-3.34 4.57,-5.87 6.67,-9.32 0.15,-0.246 0.32,-0.474 0.53,-0.68 l 6.67,-6.7 c 0.63,-0.44 1.15,-0.953 1.54,-1.54 0.25,-0.387 0.28,-0.687 0.1,-0.9 -0.19,-0.193 -0.5,-0.34 -0.93,-0.44 l 10.66,1.79 c 0.28,0.05 0.39,0.396 0.19,0.61 -5.09,5.2 -9.66,11.04 -13.71,17.52 -3.69,5.927 -6.63,12.373 -8.8,19.34 -3.83,12.28 -4.75,23.24 -5.49,36.53 -0.64,11.63 -2.28,20.73 -4.96,31.16 -0.57,2.26 -1.82,5.41 -3.75,9.46 -4.26,8.96 -7.32,15.1 -9.17,18.41 -4.35,7.79 -7.39,13.91 -9.1,18.38 -3.16,8.26 -5.32,14.76 -6.48,19.51 -0.1,0.42 -0.36,0.78 -0.71,1.02 -3.43,2.31 -11.68,1.6 -15.25,1.11 -0.2,-0 0.61,-0.38 0.83,-0.7 z" id="path121" sodipodi:nodetypes="scsssssssssssssssssscsscccssssssssssss" />
   <path fill="#f7b66a" fill-opacity="0.757" d="   M 255.41 36.23   Q 253.50 42.52 248.66 44.79   L 255.41 36.23   Z" id="path122" />
   <path fill="#324544" d="   M 121.45 56.78   Q 121.45 57.02 121.47 57.03   Q 123.35 58.51 123.99 60.74   A 2.29 2.22 37.8 0 1 124.08 61.37   L 124.14 67.52   A 1.69 1.65 30.2 0 0 124.38 68.38   Q 125.24 69.78 126.97 69.70   A 0.98 0.98 0.0 0 1 127.99 70.60   L 128.22 73.49   A 1.07 1.06 -3.3 0 1 127.19 74.64   Q 121.87 74.80 119.55 70.85   A 4.22 4.05 -64.4 0 1 119.03 69.27   Q 118.80 67.33 118.74 63.39   C 118.70 61.13 117.87 59.72 115.63 59.27   A 0.95 0.95 0.0 0 1 114.91 58.62   Q 114.74 58.08 114.74 56.79   Q 114.74 55.50 114.91 54.96   A 0.95 0.95 0.0 0 1 115.63 54.31   C 117.87 53.86 118.69 52.45 118.73 50.19   Q 118.79 46.25 119.01 44.31   A 4.22 4.05 64.3 0 1 119.53 42.72   Q 121.85 38.77 127.17 38.92   A 1.07 1.06 3.3 0 1 128.20 40.07   L 127.97 42.96   A 0.98 0.98 0.0 0 1 126.95 43.86   Q 125.22 43.79 124.36 45.19   A 1.69 1.65 -30.3 0 0 124.13 46.05   L 124.07 52.20   A 2.29 2.22 -37.8 0 1 123.98 52.83   Q 123.35 55.06 121.47 56.54   Q 121.45 56.56 121.45 56.78   Z" id="path123" style="fill:#000000;fill-opacity:1" />
   <path fill="#324544" d="   M 150.32 56.80   Q 150.31 58.09 150.14 58.63   A 0.95 0.95 0.0 0 1 149.42 59.28   C 147.18 59.72 146.35 61.13 146.31 63.38   Q 146.24 67.31 146.00 69.25   A 4.21 4.04 64.5 0 1 145.48 70.82   Q 143.15 74.76 137.84 74.59   A 1.07 1.06 3.5 0 1 136.82 73.44   L 137.05 70.55   A 0.98 0.98 0.0 0 1 138.07 69.66   Q 139.80 69.74 140.66 68.35   A 1.69 1.65 -30.0 0 0 140.91 67.49   L 140.98 61.35   A 2.29 2.22 -37.6 0 1 141.07 60.72   Q 141.72 58.50 143.60 57.03   Q 143.62 57.01 143.62 56.77   Q 143.62 56.55 143.60 56.54   Q 141.73 55.05 141.10 52.83   A 2.29 2.22 38.0 0 1 141.01 52.20   L 140.98 46.06   A 1.69 1.65 30.4 0 0 140.74 45.20   Q 139.89 43.80 138.16 43.87   A 0.98 0.98 0.0 0 1 137.15 42.97   L 136.93 40.08   A 1.07 1.06 -3.1 0 1 137.96 38.94   Q 143.27 38.80 145.57 42.75   A 4.21 4.04 -64.2 0 1 146.09 44.33   Q 146.31 46.27 146.35 50.20   C 146.38 52.46 147.20 53.87 149.44 54.33   A 0.95 0.95 0.0 0 1 150.15 54.97   Q 150.32 55.52 150.32 56.80   Z" id="path124" style="fill:#000000;fill-opacity:1" />
   <path fill="#324544" d="   M 179.45 44.73   Q 179.37 45.16 179.13 45.21   Q 179.14 44.82 179.45 44.73   Z" id="path125" />
   <ellipse fill="#324544" cx="0.00" cy="0.00" transform="translate(100.00,49.43) rotate(-17.7)" rx="4.12" ry="3.93" id="ellipse125" style="fill:#000000;fill-opacity:1" />
   <path fill="#324544" d="   M 178.43 46.94   Q 178.55 47.66 178.04 48.04   Q 177.69 47.10 178.43 46.94   Z" id="path126" />
   <path fill="#a84a38" d="m 269.15,185.35 -0.38,-3.09 c -0.15,-1.17 -1.37,-1.88 -2.46,-1.42 l -9.92,4.22 c 0.43,-3.92 -3.22,-6.47 -6.52,-4.08 -0.34,0.25 -0.59,0.6 -0.69,1.01 -1.88,7.08 -4.61,12.94 -10.2,17.69 -0.41,0.33 -1,-0.1 -0.84,-0.57 3.24,-9.82 7.14,-18.84 12.93,-29.22 8.44,-15.15 15.87,-31.25 17.46,-48.63 0.97,-10.49 2.01,-22.03 3.12,-34.63 0.16,-1.833 0.4,-3.397 0.73,-4.69 2.77,-11.09 7.58,-23.27 15.01,-31.94 0.86,-1.004 2.21,-1.431 3.49,-1.1 l 5.28,1.38 c 0.84,0.218 1.13,1.271 0.52,1.89 -0.1,0.09 -1.27,1.827 -3.58,5.22 -1.33,1.967 -2.4,3.683 -3.21,5.15 -1.63,2.98 -3.56,6.037 -5.81,9.17 -3.12,4.35 4.06,9.47 6.91,2.83 1.77,-4.127 4.48,-8.16 8.12,-12.1 0.41,-0.444 1.04,-0.605 1.61,-0.41 l 4.63,1.56 c 0.79,0.268 1.13,1.199 0.69,1.91 -1.42,2.307 -3.14,4.597 -5.16,6.87 -4.84,5.45 -8.87,13.49 -13.77,21.86 -4.34,7.42 -5.8,12.3 -10.04,22.79 -4.31,10.67 -7.5,21.29 -9.43,32.63 -0.67,3.94 -1.63,7.72 -2.87,11.35 -0.41,1.19 -0.17,2.74 0.7,4.63 2.83,6.16 4.06,12.73 3.68,19.72 z m 12.61,-91.03 2.76,-8.61 c 0.24,-0.762 -0.18,-1.576 -0.94,-1.82 l -1.08,-0.35 c -2,-0.646 -4.15,0.46 -4.8,2.47 l -1.31,4.1 c -0.64,2.008 0.46,4.157 2.46,4.8 l 1.08,0.35 c 0.77,0.249 1.59,-0.173 1.83,-0.94 z" id="path127" sodipodi:nodetypes="csscscscsssssssssssssssssssssscsssssssss" />
   <path fill="#324544" d="   M 177.46 50.04   Q 177.41 50.75 177.08 51.29   Q 177.10 50.60 177.46 50.04   Z" id="path128" />
   <path fill="#324544" d="   M 86.63 64.33   Q 88.23 64.33 89.64 64.57   A 1.82 1.82 0.0 0 1 91.15 66.22   L 91.35 68.76   A 1.22 1.19 16.6 0 0 91.81 69.59   Q 95.53 72.44 97.95 69.98   A 2.53 2.53 0.0 0 1 101.46 69.89   L 104.35 72.55   A 2.26 2.26 0.0 0 1 104.33 75.90   Q 101.74 78.21 103.96 81.58   A 1.13 1.12 79.5 0 0 104.65 82.06   L 108.42 82.94   A 1.07 1.06 -89.4 0 1 109.24 83.78   Q 109.48 84.95 109.48 87.05   Q 109.48 89.14 109.24 90.31   A 1.07 1.06 89.4 0 1 108.42 91.15   L 104.65 92.03   A 1.13 1.12 -79.5 0 0 103.96 92.51   Q 101.75 95.88 104.34 98.19   A 2.26 2.26 0.0 0 1 104.36 101.54   L 101.47 104.20   A 2.53 2.53 0.0 0 1 97.96 104.11   Q 95.54 101.66 91.82 104.51   A 1.22 1.19 -16.6 0 0 91.36 105.34   L 91.16 107.88   A 1.82 1.82 0.0 0 1 89.65 109.53   Q 88.25 109.77 86.65 109.77   Q 85.05 109.77 83.64 109.54   A 1.82 1.82 0.0 0 1 82.13 107.88   L 81.93 105.34   A 1.22 1.19 16.6 0 0 81.47 104.51   Q 77.75 101.66 75.33 104.12   A 2.53 2.53 0.0 0 1 71.82 104.21   L 68.93 101.55   A 2.26 2.26 0.0 0 1 68.95 98.20   Q 71.54 95.89 69.32 92.52   A 1.13 1.12 79.5 0 0 68.63 92.04   L 64.86 91.16   A 1.07 1.06 -89.4 0 1 64.05 90.32   Q 63.81 89.15 63.81 87.06   Q 63.80 84.96 64.04 83.79   A 1.07 1.06 89.4 0 1 64.86 82.96   L 68.63 82.07   A 1.13 1.12 -79.5 0 0 69.32 81.59   Q 71.54 78.22 68.94 75.91   A 2.26 2.26 0.0 0 1 68.92 72.56   L 71.81 69.90   A 2.53 2.53 0.0 0 1 75.32 69.99   Q 77.74 72.45 81.46 69.60   A 1.22 1.19 -16.6 0 0 81.92 68.77   L 82.12 66.23   A 1.82 1.82 0.0 0 1 83.63 64.57   Q 85.04 64.33 86.63 64.33   Z   M 95.77 87.02   A 9.16 9.16 0.0 0 0 86.61 77.86   A 9.16 9.16 0.0 0 0 77.45 87.02   A 9.16 9.16 0.0 0 0 86.61 96.18   A 9.16 9.16 0.0 0 0 95.77 87.02   Z" id="path130" style="fill:#000000;fill-opacity:1" />
   <path fill="#f7b66a" fill-opacity="0.757" d="   M 237.44 70.30   Q 237.86 71.65 237.16 72.31   L 237.44 70.30   Z" id="path131" />
   <path fill="#324544" d="   M 281.76 94.32   A 1.45 1.45 0.0 0 1 279.93 95.26   L 278.85 94.91   A 3.82 3.81 -72.2 0 1 276.39 90.11   L 277.70 86.01   A 3.82 3.81 -72.2 0 1 282.50 83.54   L 283.58 83.89   A 1.45 1.45 0.0 0 1 284.52 85.71   L 281.76 94.32   Z" id="path132" style="fill:#000000;fill-opacity:1" />
   <circle fill="#324544" cx="135.30" cy="95.55" r="5.08" id="circle132" style="fill:#000000;fill-opacity:1" />
   <path fill="#324544" d="m 318.1,165.74 c -2.22,24.74 -10.13,47.07 -22.94,67.18 -22.25,34.92 -59.06,60.49 -99.92,67.68 -18.96,3.33 -38.17,2.75 -57.64,-1.75 -0.29,-0.1 -0.48,-0.14 -0.59,-0.23 -0.19,-0.17 -0.14,-0.48 0.1,-0.57 4.9,-2.07 9.79,-3.9 14.68,-5.48 3.96,-1.27 8.9,-0.53 13.05,-0.11 0.23,0 0.45,-0.1 0.6,-0.23 l 0.18,-0.2 1.22,0.6 c 0.1,0 0.18,0.1 0.28,0.1 10.25,0.55 20.56,-0.37 30.92,-2.75 0.21,-0.1 0.43,-0.1 0.65,-0.1 1.6,0 3.54,-0.47 5.83,-1.28 0.21,-0.1 0.38,-0.19 0.49,-0.34 0.13,-0.17 0.54,-0.17 0.76,-0.18 0.91,0 1.59,-0.36 2.42,-0.77 l 4,-0.97 c 6.13,-1.87 12.06,-4.31 17.8,-7.33 0.47,-0.25 0.71,-0.79 0.58,-1.3 -2.07,-8.27 -3.68,-16.6 -4.81,-24.98 l -0.72,-6.98 c 0,-0.29 0.17,-0.55 0.46,-0.6 l 7.44,-1.28 c 0.32,0.27 0.49,0.48 0.5,0.65 0.55,8.91 1.81,17.67 3.78,26.3 0.27,1.16 0.56,2.15 0.89,2.96 0.16,0.39 0.62,0.56 0.99,0.36 3.97,-2.08 7.5,-4.43 10.61,-7.05 0.47,-0.4 0.62,-1.06 0.36,-1.61 l -2.82,-6.2 c -0.75,-1.64 0.12,-3.56 1.85,-4.07 l 0.33,-0.11 c 1.72,-0.55 3.58,0.27 4.33,1.91 l 1.93,4.24 c 0.15,0.32 0.54,0.45 0.85,0.27 1.95,-1.14 3.37,-2.4 4.28,-3.78 0.19,-0.28 0.3,-0.61 0.31,-0.95 0.16,-3.38 -0.17,-6.81 -1,-10.29 -1.14,-4.81 -1.98,-9.6 -2.53,-14.37 -0.23,-0.26 -0.42,-0.4 -0.58,-0.41 l 0.87,-0.41 c 1.16,-0.73 2.73,-2.39 4.54,-3.57 0.25,-0.16 0.49,-0.34 0.71,-0.54 l 2.73,-2.57 2.61,24.29 c 0.1,0.65 0.87,0.92 1.33,0.45 22.17,-23.3 34.89,-51.14 38.15,-83.51 0.24,-4.33 0.15,-5.79 0.35,-9.16 0,-5.71 -0.17,-10.41 -0.5,-14.1 -1.03,-11.61 -3.53,-23.21 -7.49,-34.82 -0.24,-0.69 -0.16,-1.45 0.21,-2.09 l 5.23,-9.06 c 0.21,-0.362 0.75,-0.327 0.91,0.06 8.41,20.63 12.32,42.11 11.55,64.55 l -0.1,4.5 z" id="path133" sodipodi:nodetypes="csssscssscscsssssccsscssccsssssssssssssscccsscccccsssccccc" style="fill:#000000;fill-opacity:1" />
   <path fill="#f7b66a" fill-opacity="0.757" d="   M 190.03 100.65   Q 189.04 100.71 188.75 100.28   Q 188.95 100.22 189.21 100.03   Q 190.96 99.70 190.03 100.65   Z" id="path134" />
   <path fill="#324544" d="m 188.75,100.28 c 0.19,0.29 0.62,0.41 1.28,0.37 2.72,1.51 4.63,2.79 5.73,3.85 2.98,2.87 4.12,6.36 3.42,10.48 -0.45,1.49 -1.62,2.5 -3.5,3.03 -1.69,0.19 -3.04,-0.4 -4.03,-1.75 -0.9,-1.78 -0.92,-3.76 -2.1,-5.18 -0.88,-1.05 -2.03,-1.68 -3.44,-1.89 -2.56,0.73 -2.73,2.13 -3.86,4.4 -0.1,0.17 -0.19,0.32 -0.3,0.46 -1.86,2.27 -4.17,2.42 -6.94,0.46 -0.98,-0.7 -1.41,-1.93 -1.09,-3.09 1.97,-7.05 6.92,-10.76 14.83,-11.14 z" id="path135" sodipodi:nodetypes="ccscccscssssc" style="fill:#000000;fill-opacity:1" />
   <path fill="#324544" d="   M 63.14 109.19   L 62.10 110.98   A 0.89 0.88 -46.9 0 0 62.13 111.92   Q 62.83 112.95 64.35 113.20   A 0.98 0.98 0.0 0 1 65.13 113.86   Q 66.42 117.67 63.13 118.72   A 1.45 1.44 -23.7 0 0 62.31 120.82   L 63.01 122.04   A 1.00 0.99 46.4 0 1 62.99 123.08   Q 61.04 126.10 58.73 124.57   A 1.87 1.73 -69.1 0 0 56.03 125.90   Q 55.94 126.43 55.63 127.22   A 0.85 0.84 10.6 0 1 54.84 127.75   L 51.81 127.75   A 0.84 0.83 -3.9 0 1 50.98 127.03   Q 50.93 126.71 50.74 125.89   A 1.94 1.71 62.8 0 0 47.75 124.72   Q 47.52 124.95 46.65 125.25   A 0.84 0.83 57.8 0 1 45.79 125.05   L 43.76 123.03   A 0.68 0.67 38.3 0 1 43.66 122.22   L 44.69 120.42   A 0.97 0.96 41.6 0 0 44.62 119.34   Q 43.91 118.40 42.47 118.19   A 0.94 0.93 84.2 0 1 41.72 117.57   Q 40.38 113.78 43.62 112.66   A 1.67 1.50 67.6 0 0 44.41 110.42   Q 44.03 109.64 43.81 109.05   A 1.01 0.99 51.7 0 1 43.91 108.13   Q 45.84 105.25 48.31 106.88   A 1.08 1.05 51.6 0 0 49.26 107.00   Q 50.97 106.38 50.91 104.76   A 0.99 0.98 81.8 0 1 51.64 103.78   Q 53.30 103.33 55.34 103.77   A 0.71 0.71 0.0 0 1 55.89 104.46   Q 55.92 106.27 57.44 107.00   A 1.16 1.14 42.4 0 0 58.51 106.96   L 59.93 106.14   A 0.90 0.90 0.0 0 1 61.01 106.28   L 63.02 108.29   A 0.76 0.75 -53.0 0 1 63.14 109.19   Z   M 58.03 115.64   A 4.71 4.71 0.0 0 0 53.32 110.93   A 4.71 4.71 0.0 0 0 48.61 115.64   A 4.71 4.71 0.0 0 0 53.32 120.35   A 4.71 4.71 0.0 0 0 58.03 115.64   Z" id="path136" style="fill:#000000;fill-opacity:1" />
   <path fill="#324544" d="   M 244.51 121.79   Q 241.61 124.66 239.09 124.17   Q 237.51 123.87 236.46 122.10   Q 236.24 118.14 233.70 115.89   Q 232.87 114.69 231.51 115.12   Q 228.57 116.06 226.83 119.78   A 3.70 3.69 26.2 0 1 221.79 121.49   L 221.62 121.40   A 4.19 4.18 23.3 0 1 219.59 116.30   Q 221.41 111.07 224.39 109.33   Q 234.50 103.42 241.49 111.68   Q 244.54 115.27 244.51 121.79   Z" id="path137" style="fill:#000000;fill-opacity:1" />
   <path fill="#324544" d="   M 125.71 114.58   L 129.66 115.65   A 1.51 1.51 0.0 0 1 129.65 118.57   L 125.69 119.60   A 1.51 1.51 0.0 0 0 124.62 120.67   L 123.55 124.62   A 1.51 1.51 0.0 0 1 120.63 124.61   L 119.60 120.65   A 1.51 1.51 0.0 0 0 118.53 119.58   L 114.58 118.51   A 1.51 1.51 0.0 0 1 114.59 115.59   L 118.55 114.56   A 1.51 1.51 0.0 0 0 119.62 113.49   L 120.69 109.54   A 1.51 1.51 0.0 0 1 123.61 109.55   L 124.64 113.51   A 1.51 1.51 0.0 0 0 125.71 114.58   Z" id="path138" style="fill:#000000;fill-opacity:1" />
   <path fill="#f7b66a" fill-opacity="0.757" d="   M 233.70 115.89   Q 236.24 118.14 236.46 122.10   Q 233.89 119.83 232.79 116.79   Q 232.59 116.51 232.64 116.29   Q 232.68 116.06 233.01 115.98   Q 233.30 115.90 233.70 115.89   Z" id="path141" style="fill:#ffc06e;fill-opacity:0.88" />
   <path fill="#324544" d="   M 87.05 150.32   L 84.38 150.32   A 1.14 1.14 0.0 0 1 83.30 148.82   L 92.08 122.71   A 1.14 1.14 0.0 0 1 93.16 121.93   L 95.83 121.93   A 1.14 1.14 0.0 0 1 96.91 123.43   L 88.13 149.54   A 1.14 1.14 0.0 0 1 87.05 150.32   Z" id="path143" style="fill:#000000;fill-opacity:1" />
   <path fill="#f7b66a" fill-opacity="0.757" d="m 227.63,133.41 2.69,-7.21 c 1.32,2.49 0.93,5.28 -1.31,7.91 -0.19,0.21 -0.65,0.14 -0.84,-0.1 z" id="path144" sodipodi:nodetypes="ccssc" style="fill:#ffc06e;fill-opacity:0.88" />
   <path fill="#324544" d="   M 76.05 136.52   Q 76.05 137.02 76.79 137.72   Q 80.80 141.53 81.28 141.98   A 1.83 1.82 -48.7 0 1 81.44 144.45   L 80.41 145.72   A 1.59 1.59 0.0 0 1 78.12 145.91   Q 75.06 143.20 69.79 137.70   Q 69.12 136.99 69.12 136.52   Q 69.12 136.03 69.80 135.33   Q 75.08 129.84 78.15 127.14   A 1.59 1.59 0.0 0 1 80.44 127.34   L 81.46 128.61   A 1.83 1.82 48.9 0 1 81.30 131.08   Q 80.81 131.53 76.79 135.33   Q 76.05 136.03 76.05 136.52   Z" id="path145" style="fill:#000000;fill-opacity:1" />
   <path fill="#324544" d="   M 110.97 136.52   Q 110.97 137.01 110.29 137.70   Q 105.02 143.14 101.96 145.81   A 1.59 1.58 -39.8 0 1 99.69 145.61   L 98.67 144.34   A 1.81 1.81 0.0 0 1 98.85 141.89   Q 99.33 141.44 103.34 137.68   Q 104.08 136.98 104.08 136.50   Q 104.09 136.00 103.35 135.30   Q 99.38 131.50 98.90 131.05   A 1.81 1.81 0.0 0 1 98.75 128.60   L 99.78 127.34   A 1.59 1.58 40.3 0 1 102.06 127.16   Q 105.09 129.86 110.31 135.35   Q 110.97 136.05 110.97 136.52   Z" id="path146" style="fill:#000000;fill-opacity:1" />
   <path fill="#324544" d="m 189.57,138.02 2.52,2.51 c 0.11,0.11 0.24,0.19 0.37,0.26 2.03,1.03 3.73,1.8 5.08,2.33 6.02,2.33 12.05,2.18 18.09,-0.47 1.51,-0.67 4.21,-2.35 8.1,-5.04 0.23,-0.16 0.51,-0.24 0.79,-0.22 l 1.12,0.1 c 3.58,1.67 3.96,4.19 1.15,7.56 -4.73,3.06 -8.46,5.08 -11.21,6.06 -9.3,3.31 -19.4,0 -19.86,0.15 -1.96,-0.45 -3.85,-1.28 -5.66,-2.51 -3.36,-2.01 -6.24,-4.59 -8.63,-7.75 -0.18,-0.24 -0.32,-0.51 -0.39,-0.81 -0.53,-2.29 0.17,-3.89 2.1,-4.8 2.42,-1.14 4.63,1.4 6.43,2.67 z" id="path147" sodipodi:nodetypes="ccsssssccsccssscc" style="fill:#000000;fill-opacity:1" />
   <path fill="#a84a38" d="m 22.854,143.81 0.461,-1.4 q 0.806,0.47 0.57,1.73 a 0.46157,0.44499 0 0 1 -0.644,0.32 q -0.344,-0.15 -0.387,-0.65 z" id="path148" style="fill:#000000;fill-opacity:1;stroke:none;stroke-width:1.00001" />
   <path fill="#c15440" d="m 198.18,194.24 0.1,0.91 c -0.23,0.12 0.31,0.33 0,0.37 -3.34,-2.27 -7.7,-2.78 -11.47,-3.51 -0.64,-0.12 -1.17,-0.59 -1.37,-1.21 -2.95,-9.27 -5.34,-18.31 -7.15,-27.12 1.55,-1.5 2.75,-3.21 3.61,-5.13 l 2.95,-3.87 c 0.68,-0.89 1.91,-1.13 2.87,-0.57 3.53,2.07 7.34,3.56 11.42,4.47 1.05,0.23 4.59,0.33 10.61,0.29 0.31,0 0.62,-0 0.93,-0.12 1.63,-0.42 3.32,-0.64 5.09,-0.66 0.47,-0 0.77,0.48 0.56,0.9 -1.25,2.43 -2.74,4.93 -4.49,7.48 -1.36,1.98 -2.67,4.22 -3.92,6.71 -1.64,3.25 -2.83,5.55 -3.56,6.88 -0,0.1 -0.79,1.64 -2.2,4.67 -0.31,0.66 -0.91,2.26 -1.8,4.8 -0.58,1.64 -1.3,3.21 -2.17,4.71 z" id="path151" sodipodi:nodetypes="cccscccssssssssssssc" />
   <path fill="#c15440" d="m 269.15,185.35 c -1.04,17.24 -12.59,31.8 -28,39.02 -8.44,3.95 -17.3,5.9 -26.57,5.83 -1.44,0 -5.75,-0.72 -12.93,-2.13 -0.24,0 -7.33,0.72 -10.04,1.03 -9.84,1.11 -20.2,-5.2 -18.7,-16.32 1,-7.36 9.08,-7.27 14.94,-6.82 0.46,0 0.84,-0.35 0.8,-0.81 l -0.34,-4.3 c 0,-0.34 0.3,-0.61 0.63,-0.52 3.91,1.05 7.3,2.88 10.19,5.47 0.38,0.34 0.71,0.73 1,1.15 2.69,3.98 3.75,5.87 8.17,7.08 6.63,1.81 13.24,1.79 19.83,-0.1 1.84,-0.52 3.62,-1.67 5.58,-2.17 0.61,-0.15 1.35,-0.44 2.23,-0.86 10.91,-5.15 17.74,-13.88 20.51,-25.97 l 9.83,-4.2 c 1.09,-0.47 2.37,0.37 2.52,1.54 z" id="path156" sodipodi:nodetypes="cssssssssssssssscssc" />
   <path fill="#a84a38" d="m 88.392,189.88 q 0.157,0.13 0.315,0.16 0.197,0.32 0.171,0.59 -0.03,0.34 -0.395,0.44 -0.433,0.13 -0.984,-0.12 -0.592,-0.24 -0.342,-0.67 0.276,-0.49 1.235,-0.42 z" id="path157" style="fill:#000000;fill-opacity:1;stroke-width:0.999968" />
   <path fill="#c15440" d="   M 34.68 221.94   A 1.48 1.46 13.2 0 1 33.44 222.70   Q 24.38 223.06 21.12 214.57   Q 18.90 208.82 17.34 201.46   Q 16.53 197.67 17.24 194.50   A 1.03 1.03 0.0 0 1 18.89 193.92   Q 21.22 195.76 27.26 199.27   C 33.41 202.83 35.92 211.93 35.58 218.65   Q 35.49 220.48 34.68 221.94   Z" id="path158" />
   <path fill="#f7b66a" fill-opacity="0.757" d="m 214.43,202 c -0.16,1.61 -0.63,2.98 -1.42,4.12 -0.17,0.25 -0.65,0.7 -0.96,0.66 -0.48,-0.1 -1.19,-0.26 -1.65,-0.49 -0.56,-0.28 -0.95,-0.56 -1.41,-1.04 l -1.11,-1.21 c -1.13,-0.94 -1.41,-1.2 -2.57,-2.52 -0.35,-0.39 -0.69,-0.84 -0.97,-1.26 -0.36,-0.53 -1.1,-0.97 -1.72,-1.47 -0.61,-0.49 -1.22,-0.95 -1.9,-1.47 -0.78,-0.59 -1.72,-1.16 -2.46,-1.71 l -0.1,-1.37 6.22,3.18 c 0.49,0.26 0.88,0.63 1.24,1.07 1.93,2.38 3.54,4.72 6.12,5.17 0.27,0 0.68,-0.27 1.22,-1.06 0.15,-0.22 0.45,-0.27 0.58,-0.1 l 0.17,0.27 c 0.1,0.14 0.28,0.12 0.32,0 0.1,-0.31 0.21,-0.57 0.38,-0.8 z" id="path159" sodipodi:nodetypes="cssscccsssccssssssscc" />
   <path fill="#c15440" d="   M 257.04 231.71   Q 257.28 231.73 257.62 232.12   L 249.47 237.16   L 244.83 239.73   Q 244.29 239.95 243.46 239.79   L 253.30 234.14   Q 254.52 233.65 255.29 232.89   Q 256.08 232.12 257.04 231.71   Z" id="path164" />
   <path fill="#a84a38" d="   M 257.62 232.12   Q 258.44 239.27 260.15 246.49   Q 261.39 251.71 261.15 256.78   A 1.83 1.82 63.3 0 1 260.84 257.73   Q 259.48 259.80 256.56 261.51   A 0.60 0.60 0.0 0 1 255.71 261.24   L 253.78 257.00   A 3.57 3.56 68.8 0 0 249.45 255.09   L 249.12 255.20   A 2.96 2.96 0.0 0 0 247.27 259.27   L 250.09 265.47   A 1.37 1.36 -32.5 0 1 249.73 267.08   Q 245.07 271.01 239.12 274.13   A 0.71 0.71 0.0 0 1 238.13 273.77   Q 237.64 272.55 237.24 270.81   Q 234.29 257.87 233.46 244.51   Q 233.44 244.26 232.96 243.86   Q 233.65 243.07 234.26 243.02   Q 238.48 242.69 241.92 240.16   Q 242.23 239.94 243.46 239.79   Q 244.29 239.95 244.83 239.73   Q 246.27 243.35 245.76 247.06   A 1.50 1.50 0.0 0 0 247.61 248.72   L 249.88 248.13   A 2.63 2.62 80.7 0 0 251.85 245.38   L 251.23 237.69   A 0.59 0.58 -2.6 0 0 250.63 237.15   L 249.47 237.16   L 257.62 232.12   Z" id="path165" />
   <path fill="#324544" d="   M 249.47 237.16   L 250.63 237.15   A 0.59 0.58 -2.6 0 1 251.23 237.69   L 251.85 245.38   A 2.63 2.62 80.7 0 1 249.88 248.13   L 247.61 248.72   A 1.50 1.50 0.0 0 1 245.76 247.06   Q 246.27 243.35 244.83 239.73   L 249.47 237.16   Z" id="path167" style="fill:#000000;fill-opacity:1" />
   <path fill="#ffc06e" fill-opacity="0.875" d="m 218.17,245.14 c -2.62,-0.11 -5.24,-0.1 -7.86,0 -0.48,0 -0.63,0.12 -0.68,0.28 -0.14,0.41 0.36,1.17 0.33,1.93 -0.13,3.97 0,7.68 0.52,11.38 0,0.1 0.29,0.27 0.29,0.34 0.97,4.27 1.9,8.52 2.91,12.79 0.56,4.97 3.69,11.93 3.1,12.99 l -8.63,2.67 c -2.3,0.94 -7.68,2.33 -10.15,2.65 -0.1,0 -0.14,-1.4 -0.19,-1.48 -0.82,-1.58 -1.01,-2.1 -1.94,-6.09 -0.15,-0.63 -1.14,-2.19 -1.06,-5.37 0,-0.35 -0.12,-0.89 -0.37,-1.13 -0.93,-0.92 -0.13,-1.55 -0.71,-2.56 -0.35,-0.62 -0.2,-1.24 -0.38,-1.83 -0.27,-0.89 -1.57,-2.55 -0.78,-2.69 0.75,-0.11 2.38,-0.79 2.91,-1.09 0,0 8.01,-2.81 8.25,-3.2 0.86,-1.38 -0.74,-4.82 -1.37,-7.68 -0.47,-2.16 -0.77,-3.45 -1.19,-5.01 -0.1,-0.22 -1.29,-6.12 -2.72,-10.57 -0.36,-1.14 -0.93,-2.27 -1.15,-3.11 -0.22,-0.8 -0.25,-1.59 0.27,-2.06 0.59,-0.54 1.43,-0.48 1.81,-0.47 0.56,0.15 1.46,0.42 2.01,0.83 0.28,0.21 0.7,0.2 1.03,0.23 0.27,0 0.69,0.1 0.99,0.11 0.86,0.16 1.57,0.21 2.37,0.32 3.1,0.42 5.91,0.62 5.91,0.62 0,-0.2 12.02,0.46 17.88,-1.25 1.66,-0.48 9.09,-2.65 15.45,-5.72 0.61,-0.3 0.94,-0.39 1.55,-0.66 1.76,-0.79 3.74,-1.6 5.38,-2.65 7.94,-5.12 13.61,-11.39 13.16,-11.17 -0.28,0.14 3.64,5.61 0.44,8.49 -0.62,0.55 -1.15,1.17 -1.84,1.79 -1.01,0.9 -2.24,1.83 -3.47,2.77 -3.97,3.06 -8.82,6.21 -13.21,8.59 -3.26,1.76 -6.66,3.32 -8.97,4.12 -2.05,0.72 -3.17,0.78 -3.53,0.84 -1.58,0.25 -0.69,0.58 -1.67,0.79 -2.97,0.62 -8.77,1.17 -7.4,1.56 z m -9.66,30.94 c 0,0.2 -0.66,-0.85 -0.46,-0.85 1.03,0 0.46,-0.18 0.46,0.85 z" id="path169" sodipodi:nodetypes="sssssscccsssssssscsssssscsssscsssssssssssscssss" />
   <path fill="#c15440" d="m 230.59,277.74 c 0.13,0.51 -0.11,1.05 -0.58,1.3 -5.74,3.02 -7.21,4.06 -13.34,5.93 l -0.35,-1.2 -3.24,-12.18 -2.22,-12.12 c 0,-0.1 -0.1,-0.17 -0.1,-0.25 -0.1,-0.1 -0.12,-0.2 -0.2,-0.31 0,-0.1 -0.1,-0.15 -0.1,-0.24 -0.51,-3.7 -0.7,-7.54 -0.57,-11.51 0,-0.76 -0.46,-1.53 -0.32,-1.94 0,-0.16 0.32,-0.26 0.8,-0.26 l 13.81,0 c 0,0 0.83,0.19 0.87,0.55 0.46,3.32 3.65,24.64 5.54,32.18 z" id="path170" sodipodi:nodetypes="ssccccsssssscss" />
   <path fill="#324544" d="   M 288.13 295.59   L 279.34 286.80   A 1.37 1.37 0.0 0 1 279.30 284.90   L 281.43 282.57   A 1.37 1.37 0.0 0 1 283.41 282.53   L 287.93 287.04   A 1.37 1.37 0.0 0 0 289.91 287.00   L 312.47 262.44   A 1.37 1.37 0.0 0 1 314.41 262.36   L 316.75 264.51   A 1.37 1.37 0.0 0 1 316.83 266.45   L 290.11 295.55   A 1.37 1.37 0.0 0 1 288.13 295.59   Z" id="path171" style="fill:#000000;fill-opacity:1" />
   <path fill="#c15440" d="m 193.41,271.49 c 0.55,1.82 0.84,2.68 1.53,5.41 0.77,3.08 0.46,3.33 0.99,5.48 0.46,1.85 1.33,3.32 1.5,4.8 0,0.11 0.2,0.51 0.45,1.29 0.1,0.29 0.1,-0.1 0.18,1.54 -10.36,2.38 -20.67,3.3 -30.92,2.75 -0.1,0 -0.19,0 -0.28,-0.1 l -1.22,-0.6 -2.44,-11.47 c 0.13,-0.69 0.47,-1.14 1.02,-1.33 10.05,-3.47 18.44,-6.78 28.32,-10.45 0.99,2.92 0.6,1.82 0.87,2.71 z" id="path172" sodipodi:nodetypes="ssssscssccccss" />
   <path fill="#324544" d="   M 297.91 270.01   A 0.91 0.91 0.0 0 1 298.36 271.45   L 296.40 273.87   A 2.12 2.11 -64.2 0 1 294.32 274.60   C 283.66 272.24 273.89 278.04 267.61 286.38   A 2.00 2.00 0.0 0 0 267.59 288.77   Q 271.38 293.92 277.58 297.66   C 290.02 305.17 303.32 299.39 311.35 288.72   A 2.06 2.06 0.0 0 0 311.16 286.02   L 308.55 283.41   A 1.63 1.63 0.0 0 1 308.44 281.23   L 309.87 279.46   A 1.63 1.63 0.0 0 1 312.26 279.30   Q 316.02 282.83 318.43 287.12   A 1.24 1.24 0.0 0 1 318.40 288.40   Q 315.37 293.29 310.38 297.74   C 303.36 303.99 296.28 306.99 287.13 306.41   Q 279.38 305.91 271.94 300.67   Q 265.59 296.20 260.69 288.91   Q 259.92 287.76 260.79 286.24   C 263.32 281.85 267.73 277.62 271.83 274.60   Q 283.79 265.78 297.91 270.01   Z" id="path173" style="fill:#000000;fill-opacity:1" />
   <path style="fill:none;stroke:none;stroke-width:1px;stroke-linecap:butt;stroke-linejoin:miter;stroke-opacity:1" d="m 194.9,15.998 -15.56,19.446 7.16,3.182 15.56,-17.059 z" id="path174" />
   <path style="fill:#ffc06e;fill-opacity:0.88;stroke:none;stroke-width:1px;stroke-linecap:butt;stroke-linejoin:miter;stroke-opacity:1" d="m 197.75,15.937 c 0,0 -2.41,-1.057 -3.81,0.219 -0.7,0.638 -2.41,2.099 -4.1,3.835 -1.71,1.746 -3.42,3.77 -4.72,5.134 -0.18,0.187 -3.65,4.65 -6.61,10.099 -2.92,5.385 -5.33,11.747 -5.75,13.452 -0.4,1.636 -2.01,6.537 -3.04,12.862 -1.34,8.133 -1.64,17.87 -1.6,22.337 0,2.204 -0.6,13.559 -3.72,25.545 -1.53,5.88 -2.31,8.63 -4.46,14.26 -0.58,1.53 -2.42,5.99 -3.06,7.34 -3.63,7.62 -6.85,12.62 -6.85,12.62 0,0 -0.72,3.4 1.36,7.18 0.19,0.35 1.29,-1.72 3.07,-4.96 2.64,-4.78 6.55,-12.17 9.36,-18.62 3.05,-6.98 4.68,-13.62 4.96,-14.84 0.82,-3.52 2.92,-9.29 3.37,-19.941 0.25,-6.11 1.09,-12.733 1.16,-18.406 0.1,-6.193 1.12,-11.513 1.44,-13.74 0.72,-5.099 2.64,-9.856 4.4,-14.207 2.78,-6.877 5.96,-12.74 9.44,-17.336 5.81,-7.67 11.65,-11.707 11.65,-11.707 z" id="path175" sodipodi:nodetypes="csssssssssscssssssssscc" />
   <path style="fill:#ffcc79;stroke:#000000;stroke-width:1px;stroke-linecap:butt;stroke-linejoin:miter;stroke-opacity:1;fill-opacity:1" d="m 67.882,197.97 3.094,1.3 c 0,0 5.303,1.95 7.778,1.79 2.475,-0.15 2.453,-0.15 2.453,-0.15 l 3.292,-0.42 0.464,0.22 22.907,88.73 c 0,0 0.52,1.36 -1.03,2.45 -1.55,1.1 -14.607,-2.33 -16.441,-4.1 -1.834,-1.77 -23.091,-89.23 -23.091,-89.23 z" id="path1" />
   <path style="fill:#ffcc79;fill-opacity:1;stroke:#000000;stroke-width:1px;stroke-linecap:butt;stroke-linejoin:miter;stroke-opacity:1" d="m 93.245,197.46 77.475,-27.57 c 0,0 7.46,25.5 7.99,27.93 0.17,0.79 -2.11,1.01 -4.46,1.8 -1.95,0.65 -3.9,1.82 -5.08,2.87 -3.65,2.98 -4.34,7.49 -4.58,7.74 -0.25,0.97 -1.44,5.85 3.5,16.41 5.63,7.49 12.83,9.85 20.32,11.29 l 6.11,22.09 c 0,0 -34.37,12.34 -36.15,13 -2.3,0.85 -41.17,15.87 -42.6,14.26 -1.69,-1.9 -23.095,-89.23 -23.095,-89.23 z" id="path1-4" sodipodi:nodetypes="ccsscccccsscc" />
   <path style="fill:#ffcc79;fill-opacity:1;stroke:#000000;stroke-width:1px;stroke-linecap:butt;stroke-linejoin:miter;stroke-opacity:1" d="m 156.93,158.86 c 2.43,-0.54 2.13,1.19 2.55,2.32 0.26,0.68 0.37,1.48 0.41,2.35 0.1,1.77 -4.37,2.3 -6.05,3.07 -1.72,0.79 -66.084,25.5 -65.257,23.09 1.83,-5.33 15.627,-10.99 29.167,-16.33 18.28,-7.2 37.42,-14.34 39.18,-14.5 z" id="path1-9" sodipodi:nodetypes="csssssc" />
   <path style="fill:#ffcc79;fill-opacity:1;stroke:#000000;stroke-width:1px;stroke-linecap:butt;stroke-linejoin:miter;stroke-opacity:1" d="m 141.64,148.12 c 1.38,1.5 1.53,2.59 2.45,4.34 0.89,1.69 1.16,2.43 -0.52,3.2 -1.72,0.79 -60.021,30.31 -59.194,27.9 2.35,-6.85 17.814,-16.74 32.364,-24.24 12.06,-6.22 23.69,-10.71 24.9,-11.2 z" id="path1-9-8" sodipodi:nodetypes="cssssc" />
   <path style="fill:#f1b562;fill-opacity:1;stroke:#000000;stroke-width:1px;stroke-linecap:butt;stroke-linejoin:miter;stroke-opacity:1" d="m 31.358,138.61 c -1.38,1.5 -0.562,10.59 -0.419,12.71 0.127,1.91 17.777,18.37 19.207,19.89 1.297,1.38 17.146,16.56 16.319,14.15 -2.35,-6.85 -1.698,-13.7 -13.114,-25.43 -8.06,-8.28 -20.44,-20.89 -21.993,-21.32 z" id="path1-9-8-2" sodipodi:nodetypes="cssssc" />
   <path style="fill:#f1b562;fill-opacity:1;stroke:#000000;stroke-width:1px;stroke-linecap:butt;stroke-linejoin:miter;stroke-opacity:1" d="M 49.995,182.42 16.89,150.12 c 0,0 5.812,26.84 6.447,29.24 0.142,0.54 1.11,8.57 5.835,11.18 1.8,0.99 6.587,6.13 7.767,7.18 3.65,2.98 5.153,8.3 6.955,14.18 0.25,3.15 0.503,6.16 -4.437,16.72 -5.63,7.49 6.92,17.29 15.555,24.85 l 17.015,17.47 c 0,0 4.807,5.09 6.587,5.75 2.3,0.85 -1.066,-8.33 -1.775,-10.37 -0.734,-2.11 -4.968,-17.05 -8.438,-29.66 -2.721,-9.88 -4.923,-18.29 -4.923,-18.29 0,0 -1.997,-8.19 -4.189,-16.75 -1.806,-7.06 -3.424,-14.41 -6.964,-17.28 z" id="path1-4-5" sodipodi:nodetypes="ccsscccccssscscc" />
</svg>
